<?xml version="1.0" encoding="iso-8859-1"?>
<!-- Generator: Adobe Illustrator 19.0.0, SVG Export Plug-In . SVG Version: 6.00 Build 0)  -->
<svg version="1.1" id="Capa_1" xmlns="http://www.w3.org/2000/svg" xmlns:xlink="http://www.w3.org/1999/xlink" x="0px" y="0px"
	 viewBox="0 0 512 512" style="enable-background:new 0 0 512 512;" xml:space="preserve">
<path style="fill:#00CC76;" d="M452.923,0H59.077C50.92,0,44.308,6.613,44.308,14.769v250.24c0,35.812,9.177,71.299,26.537,102.622
	c17.361,31.324,42.59,57.912,72.958,76.894l104.369,65.231c2.395,1.497,5.111,2.245,7.828,2.245s5.433-0.748,7.828-2.245
	l104.369-65.231c30.368-18.98,55.597-45.57,72.958-76.894c17.361-31.323,26.537-66.809,26.537-102.622V14.769
	C467.692,6.613,461.08,0,452.923,0z"/>
<path style="fill:#00AA63;" d="M452.923,0H256v512c2.717,0,5.433-0.748,7.828-2.245l104.369-65.231
	c30.368-18.98,55.597-45.57,72.958-76.894c17.361-31.323,26.537-66.809,26.537-102.622V14.769C467.692,6.613,461.08,0,452.923,0z"/>
<path style="fill:#EDF6FF;" d="M393.846,59.077H118.154c-8.157,0-14.769,6.613-14.769,14.769v191.163
	c0,25.818,6.616,51.401,19.131,73.983c12.516,22.582,30.704,41.751,52.597,55.435l73.058,45.662
	c2.395,1.497,5.111,2.245,7.828,2.245c2.717,0,5.433-0.748,7.828-2.245l73.058-45.662c21.893-13.683,40.082-32.853,52.598-55.435
	c12.516-22.581,19.132-48.163,19.132-73.983V73.846C408.615,65.69,402.003,59.077,393.846,59.077z"/>
<path style="fill:#D7E7F4;" d="M393.846,59.077H256v383.257c2.717,0,5.433-0.748,7.828-2.245l73.058-45.662
	c21.893-13.683,40.082-32.853,52.598-55.435c12.515-22.581,19.131-48.163,19.131-73.983V73.846
	C408.615,65.69,402.003,59.077,393.846,59.077z"/>
<path style="fill:#8CDC52;" d="M315.077,208.6c0-23.413-19.048-42.462-42.462-42.462h-1.846v-18.462
	c0-8.157-6.613-14.769-14.769-14.769s-14.769,6.613-14.769,14.769v18.462h-29.538c-8.157,0-14.769,6.613-14.769,14.769v55.385
	v55.385c0,8.157,6.613,14.769,14.769,14.769h29.538v18.462c0,8.157,6.613,14.769,14.769,14.769s14.769-6.613,14.769-14.769v-18.462
	h1.846c23.413,0,42.462-19.048,42.462-42.462c0-10.575-3.895-20.252-10.313-27.692C311.182,228.851,315.077,219.174,315.077,208.6z
	 M226.462,195.677h46.154c7.126,0,12.923,5.797,12.923,12.923s-5.797,12.923-12.923,12.923h-46.154V195.677z M272.615,276.907
	h-46.154v-25.846h46.154c7.126,0,12.923,5.797,12.923,12.923S279.741,276.907,272.615,276.907z"/>
<path style="fill:#73B73D;" d="M272.615,195.677c7.126,0,12.923,5.797,12.923,12.923s-5.797,12.923-12.923,12.923H256v29.538h16.615
	c7.126,0,12.923,5.797,12.923,12.923s-5.797,12.923-12.923,12.923H256v62.769c8.157,0,14.769-6.613,14.769-14.769v-18.462h1.846
	c23.413,0,42.462-19.048,42.462-42.462c0-10.575-3.895-20.252-10.313-27.692c6.419-7.441,10.313-17.118,10.313-27.692
	c0-23.413-19.048-42.462-42.462-42.462h-1.846v-18.462c0-8.157-6.613-14.769-14.769-14.769v62.769L272.615,195.677L272.615,195.677z
	"/>
<g>
</g>
<g>
</g>
<g>
</g>
<g>
</g>
<g>
</g>
<g>
</g>
<g>
</g>
<g>
</g>
<g>
</g>
<g>
</g>
<g>
</g>
<g>
</g>
<g>
</g>
<g>
</g>
<g>
</g>
</svg>
