<svg xmlns="http://www.w3.org/2000/svg" height="512pt" version="1.1" viewBox="-51 0 512 512" width="512pt">
<g id="surface1">
<path d="M 370 268.023438 L 280 193.023438 L 280 95 C 280 92.242188 277.757812 90 275 90 L 135 90 C 132.242188 90 130 92.242188 130 95 L 130 193.023438 L 40 268.023438 L 40 95 C 40 42.617188 82.617188 0 135 0 L 275 0 C 327.382812 0 370 42.617188 370 95 Z M 370 268.023438 " style=" stroke:none;fill-rule:nonzero;fill:rgb(22.352941%,76.862745%,32.54902%);fill-opacity:1;" />
<path d="M 370 268.023438 L 370 95 C 370 42.617188 327.382812 0 275 0 L 205 0 L 205 90 L 275 90 C 277.757812 90 280 92.242188 280 95 L 280 193.023438 Z M 370 268.023438 " style=" stroke:none;fill-rule:nonzero;fill:rgb(5.490196%,65.098039%,12.54902%);fill-opacity:1;" />
<path d="M 295 512 L 115 512 C 51.589844 512 0 460.410156 0 397 L 0 345 C 0 242.988281 82.992188 160 185 160 L 225 160 C 327.011719 160 410 242.988281 410 345 L 410 397 C 410 460.410156 358.410156 512 295 512 Z M 295 512 " style=" stroke:none;fill-rule:nonzero;fill:rgb(52.941176%,90.196078%,58.039216%);fill-opacity:1;" />
<path d="M 225 160 L 205 160 L 205 512 L 295 512 C 358.410156 512 410 460.410156 410 397 L 410 345 C 410 242.988281 327.011719 160 225 160 Z M 225 160 " style=" stroke:none;fill-rule:nonzero;fill:rgb(22.352941%,76.862745%,32.54902%);fill-opacity:1;" />
<path d="M 240.925781 312.65625 C 238.113281 310.867188 235.042969 309.207031 231.71875 307.667969 C 228.902344 306.265625 225.734375 304.953125 222.222656 303.738281 C 218.699219 302.523438 215.152344 301.597656 211.570312 300.953125 L 211.570312 318.222656 C 212.722656 318.480469 213.9375 318.832031 215.21875 319.277344 C 216.496094 319.726562 217.839844 320.140625 219.246094 320.523438 C 225.511719 322.441406 231.171875 324.554688 236.226562 326.855469 C 241.277344 329.15625 245.59375 331.878906 249.179688 335.011719 C 252.757812 338.148438 255.511719 341.949219 257.429688 346.425781 C 259.347656 350.902344 260.304688 356.339844 260.304688 362.734375 C 260.304688 370.28125 258.992188 376.710938 256.375 382.015625 C 253.75 387.328125 250.296875 391.675781 246.011719 395.066406 C 241.726562 398.457031 236.835938 401.011719 231.335938 402.738281 C 225.832031 404.464844 220.140625 405.523438 214.257812 405.902344 L 214.257812 429.121094 L 198.910156 429.121094 L 198.910156 405.523438 C 190.082031 404.753906 181.320312 403.027344 172.625 400.339844 C 163.925781 397.65625 156.125 394.265625 149.214844 390.171875 L 165.335938 357.363281 C 168.785156 359.539062 172.496094 361.585938 176.460938 363.503906 C 179.785156 365.164062 183.65625 366.796875 188.066406 368.394531 C 192.480469 369.996094 196.992188 371.113281 201.597656 371.753906 L 201.597656 354.871094 C 197.628906 353.847656 193.664062 352.632812 189.699219 351.222656 C 183.6875 349.179688 178.503906 346.972656 174.15625 344.605469 C 169.808594 342.238281 166.226562 339.550781 163.414062 336.546875 C 160.601562 333.542969 158.523438 330.117188 157.179688 326.28125 C 155.835938 322.441406 155.164062 318.03125 155.164062 313.042969 C 155.164062 306.136719 156.3125 300.027344 158.617188 294.71875 C 160.921875 289.414062 164.050781 284.839844 168.019531 281 C 171.980469 277.164062 176.617188 274.09375 181.929688 271.789062 C 187.234375 269.488281 192.894531 268.019531 198.910156 267.378906 L 198.910156 248 L 214.257812 248 L 214.257812 267.570312 C 218.480469 268.085938 222.570312 268.851562 226.535156 269.871094 C 230.5 270.898438 234.308594 272.078125 237.949219 273.425781 C 241.597656 274.765625 245.015625 276.175781 248.214844 277.644531 C 251.414062 279.117188 254.355469 280.492188 257.039062 281.769531 Z M 193.921875 306.902344 C 193.921875 308.820312 194.558594 310.386719 195.839844 311.601562 C 197.117188 312.816406 199.035156 313.9375 201.597656 314.960938 L 201.597656 300.378906 C 196.480469 301.019531 193.921875 303.195312 193.921875 306.902344 Z M 220.015625 366.382812 C 220.015625 364.59375 219.246094 363.023438 217.714844 361.679688 C 216.179688 360.335938 214.128906 359.15625 211.570312 358.128906 L 211.570312 372.328125 C 214.644531 372.074219 216.816406 371.433594 218.097656 370.410156 C 219.371094 369.386719 220.015625 368.042969 220.015625 366.382812 Z M 220.015625 366.382812 " style=" stroke:none;fill-rule:nonzero;fill:rgb(100%,92.156863%,68.235294%);fill-opacity:1;" />
<path d="M 249.179688 335.011719 C 245.59375 331.878906 241.277344 329.15625 236.226562 326.855469 C 231.171875 324.554688 225.511719 322.441406 219.246094 320.523438 C 217.839844 320.140625 216.492188 319.726562 215.21875 319.277344 C 213.9375 318.832031 212.722656 318.480469 211.570312 318.222656 L 211.570312 300.953125 C 215.152344 301.597656 218.699219 302.523438 222.21875 303.734375 C 225.734375 304.953125 228.902344 306.261719 231.71875 307.667969 C 235.042969 309.203125 238.109375 310.867188 240.925781 312.65625 L 257.042969 281.765625 C 254.359375 280.492188 251.414062 279.113281 248.21875 277.644531 C 245.019531 276.175781 241.597656 274.765625 237.953125 273.421875 C 234.308594 272.078125 230.5 270.898438 226.535156 269.871094 C 222.570312 268.851562 218.480469 268.082031 214.257812 267.570312 L 214.257812 248 L 205 248 L 205 429.121094 L 214.257812 429.121094 L 214.257812 405.902344 C 220.140625 405.523438 225.832031 404.464844 231.335938 402.738281 C 236.832031 401.011719 241.726562 398.457031 246.011719 395.0625 C 250.296875 391.675781 253.75 387.324219 256.375 382.015625 C 258.992188 376.710938 260.304688 370.28125 260.304688 362.734375 C 260.304688 356.339844 259.347656 350.902344 257.429688 346.425781 C 255.507812 341.949219 252.757812 338.148438 249.179688 335.011719 Z M 218.097656 370.410156 C 216.816406 371.433594 214.640625 372.074219 211.570312 372.328125 L 211.570312 358.128906 C 214.128906 359.15625 216.179688 360.335938 217.714844 361.679688 C 219.246094 363.023438 220.015625 364.589844 220.015625 366.382812 C 220.015625 368.042969 219.371094 369.386719 218.097656 370.410156 Z M 218.097656 370.410156 " style=" stroke:none;fill-rule:nonzero;fill:rgb(100%,85.882353%,41.176471%);fill-opacity:1;" />
</g>
</svg>