<?xml version="1.0" encoding="UTF-8"?>
<svg xmlns="http://www.w3.org/2000/svg" xmlns:xlink="http://www.w3.org/1999/xlink" width="512" height="512" viewBox="0 0 59 59" version="1.1"><!-- Generator: Sketch 51.3 (57544) - http://www.bohemiancoding.com/sketch --><title>029 - Peice of the puzzle</title><desc>Created with Sketch.</desc><defs/><g id="Page-1" stroke="none" stroke-width="1" fill="none" fill-rule="evenodd"><g id="029---Peice-of-the-puzzle" fill-rule="nonzero"><path d="M23.5,38.97 L9.6138,25.0838 C9.51994209,24.9900199 9.46720672,24.8627801 9.46720672,24.7301 C9.46720672,24.5974199 9.51994209,24.4701801 9.6138,24.3764 L17.51,16.49 C18.646209,15.3847845 18.6730535,13.568308 17.57,12.43 L17.49,12.35 C17.1870356,12.0598363 16.7611174,11.9365442 16.35,12.02 C14.0761015,12.4060792 11.8000402,11.3476311 10.63,9.36 C9.57250071,7.52332647 9.61869402,5.25215545 10.75,3.46 C11.6538888,1.93938203 13.20248,0.914556553 14.9554289,0.676934593 C16.7083778,0.439312633 18.4739125,1.01488992 19.75,2.24 C21.0152787,3.51737241 21.5819809,5.32932828 21.27,7.1 C21.1957978,7.49496186 21.3104817,7.9019048 21.58,8.2 L21.69,8.3 C22.235537,8.83201059 22.9705475,9.12476045 23.7324655,9.11350057 C24.4943835,9.1022407 25.2204223,8.78789898 25.75,8.24 L33.6464,0.3531 C33.8416385,0.157975668 34.1580615,0.157975668 34.3533,0.3531 L42,8 C43.1031089,9.13828607 43.0762637,10.9548081 41.94,12.06 L41.83,12.17 C41.5350577,12.4537722 41.1243695,12.5832685 40.72,12.52 C38.9140421,12.2776081 37.0983719,12.89146 35.81,14.18 C33.6896595,16.170005 33.4247015,19.4438912 35.1974382,21.7489657 C36.9701749,24.0540402 40.2023625,24.6384176 42.67,23.1 C44.675124,21.895235 45.7808356,19.6210764 45.49,17.3 C45.42715,16.881732 45.5598687,16.4577696 45.85,16.15 L45.94,16.06 C47.0451919,14.9237363 48.8617139,14.8968911 50,16 L57.6465,23.6465 C57.8417576,23.8417614 57.8417576,24.1583386 57.6465,24.3536 L36.03,45.98 L23.5,38.97 Z" id="Shape" fill="#FF5364"/><path d="M57.68,44.57 L38.94,55.98 C37.843244,56.6475556 36.5839408,57.0004372 35.3,57 L10,57 L9.76,56.95 C9.91644378,56.6577089 9.99884867,56.3315229 10,56 L10,35 L12.8,35 C14.8715011,35.0028959 16.8808416,35.7079276 18.5,37 C20.1191584,38.2920724 22.1284989,38.9971041 24.2,39 L29.43,39 C31.1883074,38.9973932 32.8181494,39.9205905 33.72,41.43 L33.81,41.58 C34.6626206,43.0049907 34.4358477,44.8274205 33.26,46 L35.61,46 C36.0419935,46.0002223 36.4710725,45.9292722 36.88,45.79 L55.39,39.62 C56.510338,39.2521636 57.7405552,39.6381141 58.45,40.58 L58.45,40.59 C58.9149441,41.2071961 59.0965512,41.9925179 58.9497758,42.7511752 C58.8030004,43.5098325 58.3415928,44.170752 57.68,44.57 Z" id="Shape" fill="#FDD7AD"/><path d="M33.2743,45.9999956 C33.0521623,46.6438806 32.686234,47.228682 32.2043,47.71 C32.1696617,47.742397 32.1329145,47.7724629 32.0943,47.8 C31.9393722,47.9141101 31.7559904,47.9833108 31.5643,48 L24.9543,48 C23.3774489,47.9976472 21.8354841,48.4640655 20.5243,49.34 L19.7843,49.83 C19.4877667,50.0283462 19.1077782,50.0528885 18.7881939,49.8943355 C18.4686095,49.7357824 18.258274,49.418367 18.236818,49.0622591 C18.2153619,48.7061512 18.3860646,48.3657776 18.6843,48.17 L19.4143,47.68 C21.0534721,46.5829353 22.981882,45.9981467 24.9543,46 L33.2743,45.9999956 Z" id="Shape" fill="#F09372"/><path d="M8,59 L3,59 C1.34389967,58.9981813 0.00181871114,57.6561003 0,56 L0,35 C0.00181871114,33.3438997 1.34389967,32.0018187 3,32 L8,32 C9.65610033,32.0018187 10.9981813,33.3438997 11,35 L11,56 C10.9993378,57.6565799 9.65657987,58.9993378 8,59 Z" id="Shape" fill="#2980BA"/></g></g></svg>
