<svg id="Capa_1" enable-background="new 0 0 512 512" height="512" viewBox="0 0 512 512" width="512" xmlns="http://www.w3.org/2000/svg"><g><path d="m243.247 508.305c-37.564-12.331-74.718-33.837-104.62-60.558-59.881-53.511-91.532-127.613-91.532-214.294v-156.315c0-4.433 2.83-8.372 7.032-9.785l198.58-66.814c2.136-.719 4.449-.719 6.585 0l198.579 66.814c4.202 1.414 7.032 5.352 7.032 9.785v156.314c0 86.681-31.651 160.783-91.532 214.294-29.901 26.721-67.056 48.227-104.619 60.558l-9.484 3.164c-2.121.708-4.414.708-6.535 0z" fill="#fee7c9"/><path d="m464.905 77.134v156.323c0 86.674-31.655 160.784-91.537 214.285-29.9 26.73-67.058 48.236-104.618 60.564l-9.478 3.159c-2.127.712-4.419.712-6.535 0l-9.488-3.159c-4.76-1.559-9.519-3.273-14.258-5.131l.103-.031c37.561-12.327 74.708-33.833 104.618-60.564 59.882-53.502 91.527-127.611 91.527-214.285v-166.648c0-2.158-.671-4.202-1.858-5.895l34.494 11.605c4.201 1.414 7.03 5.347 7.03 9.777z" fill="#ffd496"/><path d="m266.302 35.582v126.743h-188.235v-66.642c0-2.215 1.411-4.183 3.513-4.883l172.772-58.133c1.071-.361 2.225-.361 3.286 0z" fill="#fca62f"/><path d="m266.302 35.582v126.743h-43.659v-118.985l31.709-10.673c1.071-.361 2.225-.361 3.286 0z" fill="#f98824"/><path d="m433.933 95.683v66.642h-177.933v-129.926c.556 0 1.113.093 1.638.268l172.782 58.133c2.102.701 3.513 2.668 3.513 4.883z" fill="#31a7fb"/><path d="m433.933 95.683v66.642h-31.936v-81.085l28.423 9.56c2.102.701 3.513 2.668 3.513 4.883z" fill="#1c96f9"/><path d="m266.302 152.456v323.92c-2.4.886-4.811 1.71-7.211 2.503l-1.463.484c-1.061.35-2.205.35-3.255 0l-1.463-.484c-33.604-11.033-66.859-30.287-93.643-54.229-53.117-47.47-81.2-113.587-81.2-191.201v-80.993z" fill="#31a7fb"/><path d="m222.645 152.457v314.221c9.944 4.752 20.086 8.858 30.262 12.199l3.091 1.031 3.092-1.031c33.597-11.029 66.852-30.286 93.641-54.225 53.12-47.469 81.198-113.584 81.198-191.199v-80.996z" fill="#1c96f9"/><path d="m154.798 226.643v61.902c0 3.683 1.962 7.088 5.149 8.934l88.298 51.149c4.801 2.777 10.717 2.777 15.518 0l88.277-51.138c3.187-1.846 5.149-5.251 5.149-8.934v-61.912h-202.391z" fill="#1c96f9"/><path d="m433.932 152.461v80.996c0 77.609-28.083 143.728-81.202 191.189-26.782 23.943-60.037 43.198-93.633 54.235l-3.097 1.022v-327.452z" fill="#fca62f"/><path d="m357.189 226.643v61.912c0 3.683-1.962 7.088-5.149 8.934l-88.277 51.138c-2.395 1.383-5.08 2.086-7.764 2.086v-124.07z" fill="#f98824"/><path d="m433.932 152.461v80.996c0 77.609-28.083 143.728-81.202 191.189-22.662 20.257-49.95 37.158-78.156 48.567 16.581-9.426 32.295-20.618 46.233-33.08 53.12-47.462 81.192-113.58 81.192-191.189v-96.483z" fill="#f98824"/><path d="m261.151 208.086v116.658l-2.575 1.494c-1.597.917-3.564.917-5.161 0l-96.044-55.64c-1.587-.917-2.565-2.617-2.565-4.45v-113.692l101.194 58.618z" fill="#26d192"/><g><path d="m256 211.074v115.854c-.896 0-1.793-.237-2.586-.69l-23.344-13.526v-116.658z" fill="#1ec186"/></g><g><path d="m357.195 152.456v113.691c0 1.834-.979 3.534-2.575 4.45l-96.044 55.64c-.804.453-1.689.69-2.575.69v-115.853z" fill="#23f1a8"/></g><g><path d="m357.195 152.456v113.691c0 1.834-.979 3.534-2.575 4.45l-19.326 11.198v-116.657z" fill="#26d192"/></g><g><path d="m157.387 147.966 96.01-55.612c1.608-.932 3.592-.932 5.201 0l96.01 55.613c3.45 1.999 3.45 6.98 0 8.979l-96.01 55.612c-1.608.932-3.592.932-5.201 0l-96.01-55.613c-3.45-1.999-3.45-6.98 0-8.979z" fill="#9ff7d3"/></g><g><path d="m354.609 156.948-19.398 11.229-104.234-62.841 22.417-12.98c1.607-.938 3.595-.938 5.202 0l96.013 55.609c3.451 1.998 3.451 6.985 0 8.983z" fill="#23f1a8"/></g><g><path d="m227.506 363.599h-18.843c-4.267 0-7.726-3.459-7.726-7.726s3.459-7.726 7.726-7.726h18.843c4.267 0 7.726 3.459 7.726 7.726 0 4.266-3.459 7.726-7.726 7.726z" fill="#eaf6ff"/></g><g><path d="m227.506 392.211h-39.406c-4.267 0-7.726-3.459-7.726-7.726s3.459-7.726 7.726-7.726h39.405c4.267 0 7.726 3.459 7.726 7.726.001 4.267-3.458 7.726-7.725 7.726z" fill="#eaf6ff"/></g><g><path d="m303.335 363.599h-18.843c-4.268 0-7.726-3.459-7.726-7.726s3.459-7.726 7.726-7.726h18.843c4.268 0 7.726 3.459 7.726 7.726 0 4.266-3.458 7.726-7.726 7.726z" fill="#eaf6ff"/></g><g><path d="m323.897 392.211h-39.405c-4.268 0-7.726-3.459-7.726-7.726s3.459-7.726 7.726-7.726h39.405c4.268 0 7.726 3.459 7.726 7.726.001 4.267-3.458 7.726-7.726 7.726z" fill="#eaf6ff"/></g></g></svg>