<svg id="color" enable-background="new 0 0 24 24" height="512" viewBox="0 0 24 24" width="512" xmlns="http://www.w3.org/2000/svg"><path d="m12 24-.192-.025c-.098-.026-9.808-2.699-9.808-11.8v-8.001c0-.315.195-.594.49-.703l9.25-3.424c.168-.063.353-.063.52 0l9.25 3.424c.295.109.49.388.49.703v8.001c0 9.102-9.71 11.774-9.808 11.8z" fill="#2196f3"/><path d="m12 0c-.088 0-.176.016-.26.047l-9.25 3.424c-.295.109-.49.388-.49.703v8.001c0 9.102 9.71 11.774 9.808 11.8l.192.025z" fill="#1d83d4"/><g fill="#fff"><path d="m14.5 15h-.75c-.414 0-.75-.336-.75-.75v-4.5c0-.414.336-.75.75-.75h.75c1.654 0 3 1.346 3 3s-1.346 3-3 3zm0-4.5v3c.827 0 1.5-.673 1.5-1.5s-.673-1.5-1.5-1.5z"/><path d="m10.25 15c-.414 0-.75-.336-.75-.75v-3.25c0-.275-.224-.5-.5-.5s-.5.225-.5.5v3.25c0 .414-.336.75-.75.75s-.75-.336-.75-.75v-3.25c0-1.104.897-2 2-2s2 .896 2 2v3.25c0 .414-.336.75-.75.75z"/><path d="m10.25 13.5h-2.5c-.414 0-.75-.336-.75-.75s.336-.75.75-.75h2.5c.414 0 .75.336.75.75s-.336.75-.75.75z"/></g><path d="m17.5 12h-1.5c0 .827-.673 1.5-1.5 1.5v-1.5h-1.5v2.25c0 .414.336.75.75.75h.75c1.654 0 3-1.346 3-3z" fill="#dedede"/><path d="m11 12.75c0 .414-.336.75-.75.75h-.75v.75c0 .414.336.75.75.75s.75-.336.75-.75zm-2.5-.75h-1.5v2.25c0 .414.336.75.75.75s.75-.336.75-.75v-.75h-.75c-.414 0-.75-.336-.75-.75s.336-.75.75-.75zm2.5 0h-1.5.75c.414 0 .75.336.75.75z" fill="#dedede"/><path d="m10.25 12h-.75-1-.75c-.414 0-.75.336-.75.75s.336.75.75.75h.75 1 .75c.414 0 .75-.336.75-.75 0-.414-.336-.75-.75-.75z" fill="#dedede"/></svg>