<svg height="512pt" viewBox="-20 0 511 512" width="512pt" xmlns="http://www.w3.org/2000/svg"><g fill="#fdae02"><path d="m432.726562 220.761719h39.292969v30h-39.292969zm0 0"/><path d="m432.933594 104.878906 15 25.980469-34.027344 19.648437-15-25.980468zm0 0"/><path d="m341.140625 24.082031 25.980469 15-19.644532 34.03125-25.980468-15zm0 0"/></g><path d="m131.371094 24.082031 19.644531 34.03125-25.980469 15-19.644531-34.03125zm0 0" fill="#fdcb02"/><path d="m39.585938 104.886719 34.027343 19.648437-15 25.980469-34.027343-19.648437zm0 0" fill="#fdcb02"/><path d="m.5 220.761719h39.292969v30h-39.292969zm0 0" fill="#fdcb02"/><path d="m251.261719 0h-15l-10.667969 21.332031 10.667969 17.960938h15zm0 0" fill="#fdae02"/><path d="m221.261719 0h15v39.292969h-15zm0 0" fill="#fdcb02"/><path d="m236.261719 364.121094-10.667969 73.210937 10.667969 74.667969c40.769531 0 73.9375-33.167969 73.9375-73.941406 0-40.769532-33.167969-73.9375-73.9375-73.9375zm0 0" fill="#32393f"/><path d="m162.320312 438.058594c0 40.773437 33.167969 73.941406 73.941407 73.941406v-147.878906c-40.773438 0-73.941407 33.167968-73.941407 73.9375zm0 0" fill="#575f64"/><path d="m236.261719 83.234375-21.335938 151.433594 21.335938 160 93.585937-31.894531c38.875-29.339844 61.855469-75.144532 61.855469-124.097657 0-85.710937-69.730469-155.441406-155.441406-155.441406zm0 0" fill="#fdb602"/><path d="m80.816406 238.675781c0 48.953125 22.980469 94.757813 61.855469 124.097657l93.589844 31.894531v-311.433594c-85.714844 0-155.445313 69.730469-155.445313 155.441406zm0 0" fill="#fdcb02"/><path d="m239.457031 206.574219c10.003907 0 20.664063 2.789062 31.980469 8.53125l11.644531-28.046875c-9.347656-5.246094-21.15625-8.363282-33.292969-9.511719v-17.546875h-13.527343l-10.667969 32 10.667969 14.683594c.996093-.066406 2.046875-.109375 3.195312-.109375zm0 0" fill="#fee686"/><path d="m236.261719 221.0625-10.667969 13.605469 10.667969 18.601562c7.898437 1.800781 13.527343 3.785157 13.527343 8.082031 0 3.765626-3.613281 6.023438-13.527343 6.214844l-10.667969 31.101563 10.667969 74.664062h15v-77.65625c24.4375-4.757812 36.742187-19.910156 36.742187-37.273437 0-30.699219-33.402344-33.085938-51.742187-37.339844zm0 0" fill="#fee686"/><path d="m226.664062 177.875c-26.894531 3.773438-40.34375 19.351562-40.34375 37.886719 0 30.058593 31.300782 33.265625 49.941407 37.507812v-32.207031c-6.941407-1.609375-11.726563-3.488281-11.726563-7.269531 0-3.535157 2.929688-6.535157 11.726563-7.109375v-46.683594h-9.597657zm0 0" fill="#fff7d7"/><path d="m234.867188 267.585938c-12.628907 0-27.0625-4.101563-37.886719-10.496094l-12.460938 28.207031c8.753907 5.398437 22.308594 9.492187 36.742188 11.023437v77.015626h15v-105.769532c-.457031.007813-.910157.019532-1.394531.019532zm0 0" fill="#fff7d7"/><path d="m329.847656 362h-93.585937l-10.667969 43.332031 10.667969 36.335938h93.585937zm0 0" fill="#d3d3d8"/><path d="m142.671875 362h93.589844v79.664062h-93.589844zm0 0" fill="#e2e2e7"/></svg>